{
  "accessors": [
    {
      "bufferView": 1,
      "componentType": 5126,
      "count": 108,
      "max": [
        434.77294921875,
        155.75344848632812,
        339.95947265625
      ],
      "min": [
        -443.515869140625,
        140.81510925292969,
        -366.83642578125
      ],
      "type": "VEC3"
    },
    {
      "bufferView": 1,
      "byteOffset": 1296,
      "componentType": 5126,
      "count": 108,
      "max": [
        1,
        1,
        1
      ],
      "min": [
        -1,
        -1,
        -1
      ],
      "type": "VEC3"
    },
    {
      "bufferView": 2,
      "componentType": 5126,
      "count": 108,
      "max": [
        1,
        0.54290145635604858,
        8.8764418251230381e-06,
        -1
      ],
      "min": [
        -1,
        -0.54287856817245483,
        -1,
        -1
      ],
      "type": "VEC4"
    },
    {
      "bufferView": 0,
      "componentType": 5125,
      "count": 180,
      "max": [
        107
      ],
      "min": [
        0
      ],
      "type": "SCALAR"
    },
    {
      "bufferView": 1,
      "byteOffset": 2592,
      "componentType": 5126,
      "count": 384,
      "max": [
        429.8701171875,
        148.44157409667969,
        288.655029296875
      ],
      "min": [
        -439.24609375,
        0,
        -256.677978515625
      ],
      "type": "VEC3"
    },
    {
      "bufferView": 1,
      "byteOffset": 7200,
      "componentType": 5126,
      "count": 384,
      "max": [
        1,
        0.99173194169998169,
        0.99410408735275269
      ],
      "min": [
        -1,
        -0.97682589292526245,
        -0.99410432577133179
      ],
      "type": "VEC3"
    },
    {
      "bufferView": 2,
      "byteOffset": 1728,
      "componentType": 5126,
      "count": 384,
      "max": [
        1,
        0.96915531158447266,
        0.33973786234855652,
        1
      ],
      "min": [
        -1,
        -0.12832939624786377,
        -0.99173194169998169,
        1
      ],
      "type": "VEC4"
    },
    {
      "bufferView": 0,
      "byteOffset": 720,
      "componentType": 5125,
      "count": 576,
      "max": [
        383
      ],
      "min": [
        0
      ],
      "type": "SCALAR"
    },
    {
      "bufferView": 1,
      "byteOffset": 11808,
      "componentType": 5126,
      "count": 408,
      "max": [
        465.1474609375,
        159.55300903320312,
        366.836669921875
      ],
      "min": [
        -465.147705078125,
        155.17903137207031,
        -346.992431640625
      ],
      "type": "VEC3"
    },
    {
      "bufferView": 1,
      "byteOffset": 16704,
      "componentType": 5126,
      "count": 408,
      "max": [
        1,
        1,
        1
      ],
      "min": [
        -1,
        -1,
        -1
      ],
      "type": "VEC3"
    },
    {
      "bufferView": 2,
      "byteOffset": 7872,
      "componentType": 5126,
      "count": 408,
      "max": [
        1,
        1,
        0.00020782380306627601,
        1
      ],
      "min": [
        -0.00022132828598842025,
        -1,
        -0.00015481455193366855,
        1
      ],
      "type": "VEC4"
    },
    {
      "bufferView": 0,
      "byteOffset": 3024,
      "componentType": 5125,
      "count": 612,
      "max": [
        407
      ],
      "min": [
        0
      ],
      "type": "SCALAR"
    }
  ],
  "asset": {
    "extras": {
      "author": "BlackSpire (https://sketchfab.com/blackspire)",
      "license": "CC-BY-4.0 (http://creativecommons.org/licenses/by/4.0/)",
      "source": "https://sketchfab.com/models/bcdf9ccf8737436cb1536629df356529",
      "title": "Castle_Trench_Bridge"
    },
    "generator": "Sketchfab-3.18.7",
    "version": "2.0"
  },
  "bufferViews": [
    {
      "buffer": 0,
      "byteLength": 5472,
      "byteOffset": 0,
      "name": "floatBufferViews",
      "target": 34963
    },
    {
      "buffer": 0,
      "byteLength": 21600,
      "byteOffset": 5472,
      "byteStride": 12,
      "name": "floatBufferViews",
      "target": 34962
    },
    {
      "buffer": 0,
      "byteLength": 14400,
      "byteOffset": 27072,
      "byteStride": 16,
      "name": "floatBufferViews",
      "target": 34962
    }
  ],
  "buffers": [
    {
      "byteLength": 41472,
      "uri": "scene.bin"
    }
  ],
  "materials": [
    {
      "doubleSided": true,
      "emissiveFactor": [
        0,
        0,
        0
      ],
      "name": "Legno02_Mat",
      "pbrMetallicRoughness": {
        "baseColorFactor": [
          0.42199999999999999,
          0.26475500000000002,
          0.12997600000000001,
          1
        ],
        "metallicFactor": 0,
        "roughnessFactor": 1
      }
    },
    {
      "doubleSided": true,
      "emissiveFactor": [
        0,
        0,
        0
      ],
      "name": "Legno03_Mat",
      "pbrMetallicRoughness": {
        "baseColorFactor": [
          0.157,
          0.12124,
          0.090589000000000003,
          1
        ],
        "metallicFactor": 0,
        "roughnessFactor": 1
      }
    },
    {
      "doubleSided": true,
      "emissiveFactor": [
        0,
        0,
        0
      ],
      "name": "Legno01_Mat",
      "pbrMetallicRoughness": {
        "baseColorFactor": [
          0.23799999999999999,
          0.157776,
          0.09758,
          1
        ],
        "metallicFactor": 0,
        "roughnessFactor": 1
      }
    }
  ],
  "meshes": [
    {
      "name": "pCube1059_Legno02_Mat_0",
      "primitives": [
        {
          "attributes": {
            "NORMAL": 1,
            "POSITION": 0,
            "TANGENT": 2
          },
          "indices": 3,
          "material": 0,
          "mode": 4
        }
      ]
    },
    {
      "name": "pCube1059_Legno03_Mat_0",
      "primitives": [
        {
          "attributes": {
            "NORMAL": 5,
            "POSITION": 4,
            "TANGENT": 6
          },
          "indices": 7,
          "material": 1,
          "mode": 4
        }
      ]
    },
    {
      "name": "pCube1059_Legno01_Mat_0",
      "primitives": [
        {
          "attributes": {
            "NORMAL": 9,
            "POSITION": 8,
            "TANGENT": 10
          },
          "indices": 11,
          "material": 2,
          "mode": 4
        }
      ]
    }
  ],
  "nodes": [
    {
      "children": [
        1
      ],
      "name": "RootNode (gltf orientation matrix)",
      "rotation": [
        -0.70710678118654746,
        -0,
        -0,
        0.70710678118654757
      ]
    },
    {
      "children": [
        2
      ],
      "name": "RootNode (model correction matrix)"
    },
    {
      "children": [
        3
      ],
      "matrix": [
        1,
        0,
        0,
        0,
        0,
        0,
        1,
        0,
        0,
        -1,
        0,
        0,
        0,
        0,
        0,
        1
      ],
      "name": "712169dff11a4bcca27b22b67b230d11.fbx"
    },
    {
      "children": [
        4
      ],
      "name": "RootNode"
    },
    {
      "children": [
        5,
        6,
        7
      ],
      "matrix": [
        0.0099999997764825821,
        0,
        0,
        0,
        0,
        0.0099999997764825821,
        0,
        0,
        0,
        0,
        0.0099999997764825821,
        0,
        0,
        0,
        0,
        1
      ],
      "name": "pCube1059"
    },
    {
      "mesh": 0,
      "name": "pCube1059_Legno02_Mat_0"
    },
    {
      "mesh": 1,
      "name": "pCube1059_Legno03_Mat_0"
    },
    {
      "mesh": 2,
      "name": "pCube1059_Legno01_Mat_0"
    }
  ],
  "scene": 0,
  "scenes": [
    {
      "name": "OSG_Scene",
      "nodes": [
        0
      ]
    }
  ]
}

