{
  "accessors": [
    {
      "bufferView": 2,
      "componentType": 5126,
      "count": 6430,
      "max": [
        0.010000002570450306,
        0.0067915883846580982,
        0.010000000707805157
      ],
      "min": [
        -0.011419836431741714,
        -0.0067915883846580982,
        -0.015076076611876488
      ],
      "type": "VEC3"
    },
    {
      "bufferView": 2,
      "byteOffset": 77160,
      "componentType": 5126,
      "count": 6430,
      "max": [
        1,
        1,
        1
      ],
      "min": [
        -1,
        -1,
        -1
      ],
      "type": "VEC3"
    },
    {
      "bufferView": 3,
      "componentType": 5126,
      "count": 6430,
      "max": [
        1,
        1,
        1,
        1
      ],
      "min": [
        -1,
        -1,
        -1,
        1
      ],
      "type": "VEC4"
    },
    {
      "bufferView": 1,
      "componentType": 5126,
      "count": 6430,
      "max": [
        0.78990364074707031,
        0.99973958730697632
      ],
      "min": [
        0.00026035303017124534,
        0.00026035303017124534
      ],
      "type": "VEC2"
    },
    {
      "bufferView": 1,
      "byteOffset": 51440,
      "componentType": 5126,
      "count": 6430,
      "max": [
        0.78990364074707031,
        0.99973958730697632
      ],
      "min": [
        0.00026035303017124534,
        0.00026035303017124534
      ],
      "type": "VEC2"
    },
    {
      "bufferView": 1,
      "byteOffset": 102880,
      "componentType": 5126,
      "count": 6430,
      "max": [
        0.78990364074707031,
        0.99973958730697632
      ],
      "min": [
        0.00026035303017124534,
        0.00026035303017124534
      ],
      "type": "VEC2"
    },
    {
      "bufferView": 1,
      "byteOffset": 154320,
      "componentType": 5126,
      "count": 6430,
      "max": [
        0.78990364074707031,
        0.99973958730697632
      ],
      "min": [
        0.00026035303017124534,
        0.00026035303017124534
      ],
      "type": "VEC2"
    },
    {
      "bufferView": 0,
      "componentType": 5125,
      "count": 33624,
      "max": [
        6429
      ],
      "min": [
        0
      ],
      "type": "SCALAR"
    }
  ],
  "asset": {
    "extras": {
      "author": "vanhalen3d (https://sketchfab.com/vanhalen3d)",
      "license": "CC-BY-4.0 (http://creativecommons.org/licenses/by/4.0/)",
      "source": "https://sketchfab.com/3d-models/fuel-container-e5607ca91cf14cfc9596485d7be06948",
      "title": "Fuel Container"
    },
    "generator": "Sketchfab-6.0.0",
    "version": "2.0"
  },
  "bufferViews": [
    {
      "buffer": 0,
      "byteLength": 134496,
      "byteOffset": 0,
      "name": "floatBufferViews",
      "target": 34963
    },
    {
      "buffer": 0,
      "byteLength": 205760,
      "byteOffset": 134496,
      "byteStride": 8,
      "name": "floatBufferViews",
      "target": 34962
    },
    {
      "buffer": 0,
      "byteLength": 154320,
      "byteOffset": 340256,
      "byteStride": 12,
      "name": "floatBufferViews",
      "target": 34962
    },
    {
      "buffer": 0,
      "byteLength": 102880,
      "byteOffset": 494576,
      "byteStride": 16,
      "name": "floatBufferViews",
      "target": 34962
    }
  ],
  "buffers": [
    {
      "byteLength": 597456,
      "uri": "scene.bin"
    }
  ],
  "images": [
    {
      "uri": "textures/fuel_can_baseColor.jpeg"
    },
    {
      "uri": "textures/fuel_can_metallicRoughness.png"
    },
    {
      "uri": "textures/fuel_can_normal.png"
    }
  ],
  "materials": [
    {
      "doubleSided": false,
      "emissiveFactor": [
        0,
        0,
        0
      ],
      "name": "fuel_can",
      "normalTexture": {
        "index": 2,
        "scale": 1,
        "texCoord": 1
      },
      "pbrMetallicRoughness": {
        "baseColorFactor": [
          1,
          1,
          1,
          1
        ],
        "baseColorTexture": {
          "index": 0,
          "texCoord": 0
        },
        "metallicFactor": 1,
        "metallicRoughnessTexture": {
          "index": 1,
          "texCoord": 0
        },
        "roughnessFactor": 1
      }
    }
  ],
  "meshes": [
    {
      "primitives": [
        {
          "attributes": {
            "NORMAL": 1,
            "POSITION": 0,
            "TANGENT": 2,
            "TEXCOORD_0": 3,
            "TEXCOORD_1": 4,
            "TEXCOORD_2": 5,
            "TEXCOORD_3": 6
          },
          "indices": 7,
          "material": 0,
          "mode": 4
        }
      ]
    }
  ],
  "nodes": [
    {
      "children": [
        1
      ],
      "name": "RootNode (gltf orientation matrix)",
      "rotation": [
        -0.70710678118654746,
        -0,
        -0,
        0.70710678118654757
      ]
    },
    {
      "children": [
        2
      ],
      "name": "RootNode (model correction matrix)"
    },
    {
      "children": [
        3
      ],
      "name": "root"
    },
    {
      "children": [
        4
      ],
      "matrix": [
        1,
        0,
        0,
        0,
        0,
        2.2204460492503131e-16,
        1,
        0,
        0,
        -1,
        2.2204460492503131e-16,
        0,
        0,
        0,
        0,
        1
      ],
      "name": "GLTF_SceneRootNode"
    },
    {
      "children": [
        5
      ],
      "matrix": [
        50,
        -0,
        0,
        0,
        0,
        0,
        50.000015258789062,
        0,
        -0,
        -50.000015258789062,
        0,
        0,
        0,
        0,
        0,
        1
      ],
      "name": "fuel_can_0"
    },
    {
      "mesh": 0,
      "name": ""
    }
  ],
  "samplers": [
    {
      "magFilter": 9729,
      "minFilter": 9729,
      "wrapS": 10497,
      "wrapT": 10497
    },
    {
      "magFilter": 9729,
      "minFilter": 9987,
      "wrapS": 10497,
      "wrapT": 10497
    }
  ],
  "scene": 0,
  "scenes": [
    {
      "name": "OSG_Scene",
      "nodes": [
        0
      ]
    }
  ],
  "textures": [
    {
      "sampler": 0,
      "source": 0
    },
    {
      "sampler": 1,
      "source": 1
    },
    {
      "sampler": 0,
      "source": 2
    }
  ]
}

